<mxfile host="app.diagrams.net" modified="2023-06-15T11:56:43.087Z" agent="Mozilla/5.0 (Windows NT 10.0; Win64; x64) AppleWebKit/537.36 (KHTML, like Gecko) Chrome/114.0.0.0 Safari/537.36" version="21.4.0" etag="RmTp6D7kpG9fu9lktdaQ" type="github">
  <diagram name="페이지-1" id="4maK1t9ZABO2o6NzE881">
    <mxGraphModel>
      <root>
        <mxCell id="0" />
        <mxCell id="1" parent="0" />
      </root>
    </mxGraphModel>
  </diagram>
</mxfile>
